<svg width="25" height="24" viewBox="0 0 25 24" fill="none" xmlns="http://www.w3.org/2000/svg">
<path d="M16.2188 21.1875C17.0644 21.1875 17.75 20.5019 17.75 19.6563C17.75 18.8106 17.0644 18.125 16.2188 18.125C15.3731 18.125 14.6875 18.8106 14.6875 19.6563C14.6875 20.5019 15.3731 21.1875 16.2188 21.1875Z" fill="#2B7AB9"/>
<path d="M9.21875 21.1875C10.0644 21.1875 10.75 20.5019 10.75 19.6563C10.75 18.8106 10.0644 18.125 9.21875 18.125C8.37306 18.125 7.6875 18.8106 7.6875 19.6563C7.6875 20.5019 8.37306 21.1875 9.21875 21.1875Z" fill="#2B7AB9"/>
<path d="M6.235 4.9475L6.06 7.09125C6.025 7.5025 6.34875 7.84375 6.76 7.84375H20.1562C20.5238 7.84375 20.83 7.56375 20.8562 7.19625C20.97 5.6475 19.7887 4.3875 18.24 4.3875H7.48625C7.39875 4.0025 7.22375 3.635 6.9525 3.32875C6.515 2.865 5.9025 2.59375 5.2725 2.59375H3.75C3.39125 2.59375 3.09375 2.89125 3.09375 3.25C3.09375 3.60875 3.39125 3.90625 3.75 3.90625H5.2725C5.54375 3.90625 5.7975 4.02 5.98125 4.2125C6.165 4.41375 6.2525 4.67625 6.235 4.9475Z" fill="#2B7AB9"/>
<path fill-rule="evenodd" clip-rule="evenodd" d="M23.5 13C23.5 15.2091 21.7091 17 19.5 17C17.2909 17 15.5 15.2091 15.5 13C15.5 10.7909 17.2909 9 19.5 9C21.7091 9 23.5 10.7909 23.5 13ZM19.5 10.5C19.7761 10.5 20 10.7239 20 11V12.5H21.5C21.7761 12.5 22 12.7239 22 13C22 13.2761 21.7761 13.5 21.5 13.5H20V15C20 15.2761 19.7761 15.5 19.5 15.5C19.2239 15.5 19 15.2761 19 15V13.5H17.5C17.2239 13.5 17 13.2761 17 13C17 12.7239 17.2239 12.5 17.5 12.5H19V11C19 10.7239 19.2239 10.5 19.5 10.5Z" fill="#2B7AB9"/>
<path fill-rule="evenodd" clip-rule="evenodd" d="M16.3021 9.15625H6.5238C6.1563 9.15625 5.8588 9.43625 5.8238 9.795L5.5088 13.6012C5.3863 15.0975 6.5588 16.375 8.05505 16.375H15.8109C14.9967 15.4856 14.5 14.3008 14.5 13C14.5 11.4549 15.2009 10.0734 16.3021 9.15625Z" fill="#2B7AB9"/>
</svg>
